<svg id="profile" xmlns="http://www.w3.org/2000/svg" viewBox="0 0 626 313"><defs><style>.cls-1{fill:#fff;}.cls-1,.cls-2,.cls-3,.cls-4{stroke:#353535;stroke-miterlimit:10;}.cls-2{fill:#7facfa;}.cls-3{fill:#a4c2f7;}.cls-4{fill:#353535;}</style></defs><title>5_profile_avatarsvg</title><path class="cls-1" d="M91.5,329.29c.7,0,1.39,0,2.09-.05-36.49-1.11-65.75-32.79-65.75-71.74s29.26-70.63,65.75-71.74c-.7,0-1.39,0-2.09,0a71.79,71.79,0,1,0,0,143.58Z" transform="translate(-16.5 -19.5)"/><path class="cls-2" d="M70.13,298.28,48.71,310a19.36,19.36,0,0,0-3.44,2.45,71.76,71.76,0,0,0,92.19.24,19.24,19.24,0,0,0-3.78-2.54l-22.94-11.46a8.77,8.77,0,0,1-4.83-7.83v-9a34.68,34.68,0,0,0,2.17-2.79,52.86,52.86,0,0,0,7.13-14.37,7.18,7.18,0,0,0,5.1-6.85V248.2a7.13,7.13,0,0,0-2.4-5.32V229s2.86-21.61-26.41-21.61S65.09,229,65.09,229v13.89a7.13,7.13,0,0,0-2.4,5.32v9.61a7.16,7.16,0,0,0,3.32,6,47.57,47.57,0,0,0,8.68,18v8.78A8.76,8.76,0,0,1,70.13,298.28Z" transform="translate(-16.5 -19.5)"/><path class="cls-3" d="M132.42,309.93l-30.17-11.47a8.74,8.74,0,0,1-4.84-7.82v-9c.77-.9,1.49-1.83,2.17-2.79a53,53,0,0,0,7.13-14.37,7.22,7.22,0,0,0,5.11-6.86V248a7.15,7.15,0,0,0-2.4-5.32V228.81S112.27,207.2,83,207.2c-1.74,0-3.36.08-4.88.22a3.13,3.13,0,0,1-1.93,3.3,74.43,74.43,0,0,0-10.14,5.08,2.79,2.79,0,0,1,2.31,2.76c.58,10-2.85,21.68-5.94,31.88.1,4,.19,8,.3,12,.3.92.6,1.85.89,2.78a3.1,3.1,0,0,1,1.25,1.45c1.24,3,2.62,6,3.82,9a3.32,3.32,0,0,1,4,2,36.1,36.1,0,0,1,2,9.24,2.34,2.34,0,0,1-1.17,2.35A40.26,40.26,0,0,1,66,303.59a3,3,0,0,1-4.9-1.29,15.44,15.44,0,0,1-.35-1.53c-2,1.2-4.17,2.24-6.5,3.55-1.26.7-10.77,5.07-11,6.15-1.34,6.13,20.15,13.73,30.94,18a72.69,72.69,0,0,0,8.85.61c17.49,0,40.75-6.26,53.2-16.65a18.91,18.91,0,0,0-3.78-2.53Z" transform="translate(-16.5 -19.5)"/><path class="cls-4" d="M91.5,332A74.5,74.5,0,1,1,166,257.5,74.49,74.49,0,0,1,91.5,332Zm0-143.58a69.08,69.08,0,1,0,69.08,69.08A69.08,69.08,0,0,0,91.5,188.42Z" transform="translate(-16.5 -19.5)"/><path class="cls-4" d="M91.5,332a74.56,74.56,0,0,1-48-17.52,2.74,2.74,0,0,1-1-2.05,2.68,2.68,0,0,1,.93-2.06,22,22,0,0,1,3.92-2.79L68.84,295.9A6,6,0,0,0,72,290.6v-7.84a51.13,51.13,0,0,1-8.38-17.31A9.88,9.88,0,0,1,60,257.81V248.2a9.88,9.88,0,0,1,2.41-6.41V229.14a21.84,21.84,0,0,1,5.1-15.89c5-5.69,13.07-8.58,24-8.58s19,2.89,24,8.59a21.8,21.8,0,0,1,5.1,15.88v12.65a9.82,9.82,0,0,1,2.4,6.41v9.61a9.83,9.83,0,0,1-5.64,8.91,55.31,55.31,0,0,1-7.09,13.88c-.58.81-1.14,1.55-1.67,2.21v8a6,6,0,0,0,3.34,5.4l22.93,11.47a21.61,21.61,0,0,1,4.31,2.88,2.7,2.7,0,0,1,0,4.15A74.54,74.54,0,0,1,91.5,332ZM49.72,312.5a69,69,0,0,0,83.21.27l-.46-.23-22.94-11.47a11.39,11.39,0,0,1-6.33-10.25v-9a2.69,2.69,0,0,1,.67-1.78c.71-.83,1.37-1.69,2-2.58a50.3,50.3,0,0,0,6.76-13.63,2.7,2.7,0,0,1,1.78-1.76,4.52,4.52,0,0,0,3.2-4.26V248.2a4.46,4.46,0,0,0-1.51-3.31,2.7,2.7,0,0,1-.9-2V229a2.16,2.16,0,0,1,0-.35,16.64,16.64,0,0,0-3.83-11.87c-3.93-4.43-10.62-6.68-19.9-6.68s-16,2.27-20,6.74a16.35,16.35,0,0,0-3.78,11.81,2.16,2.16,0,0,1,0,.35v13.89a2.7,2.7,0,0,1-.9,2,4.46,4.46,0,0,0-1.51,3.31v9.61a4.5,4.5,0,0,0,2.08,3.77,2.64,2.64,0,0,1,1.17,1.67,45.42,45.42,0,0,0,8.13,16.84,2.67,2.67,0,0,1,.63,1.73v8.78a11.47,11.47,0,0,1-6,10.06h0L50,312.34Z" transform="translate(-16.5 -19.5)"/><path class="cls-1" d="M247.5,329.29c.7,0,1.39,0,2.09-.05-36.49-1.11-65.75-32.79-65.75-71.74s29.26-70.63,65.75-71.74c-.7,0-1.39,0-2.09,0a71.79,71.79,0,1,0,0,143.58Z" transform="translate(-16.5 -19.5)"/><path class="cls-2" d="M226.13,298.28,204.71,310a19.36,19.36,0,0,0-3.44,2.45,71.76,71.76,0,0,0,92.19.24,19.24,19.24,0,0,0-3.78-2.54l-22.94-11.46a8.77,8.77,0,0,1-4.83-7.83v-9a34.68,34.68,0,0,0,2.17-2.79,52.86,52.86,0,0,0,7.13-14.37,7.18,7.18,0,0,0,5.1-6.85V248.2a7.13,7.13,0,0,0-2.4-5.32V229s2.86-21.61-26.41-21.61S221.09,229,221.09,229v13.89a7.13,7.13,0,0,0-2.4,5.32v9.61a7.16,7.16,0,0,0,3.32,6,47.57,47.57,0,0,0,8.68,18v8.78A8.76,8.76,0,0,1,226.13,298.28Z" transform="translate(-16.5 -19.5)"/><path class="cls-3" d="M288.42,309.93l-30.17-11.47a8.74,8.74,0,0,1-4.84-7.82v-9c.77-.9,1.49-1.83,2.17-2.79a53,53,0,0,0,7.13-14.37,7.22,7.22,0,0,0,5.11-6.86V248a7.15,7.15,0,0,0-2.4-5.32V228.81S268.27,207.2,239,207.2c-1.74,0-3.36.08-4.88.22a3.13,3.13,0,0,1-1.93,3.3,74.43,74.43,0,0,0-10.14,5.08,2.79,2.79,0,0,1,2.31,2.76c.58,10-2.85,21.68-5.94,31.88.1,4,.19,8,.3,12,.3.92.6,1.85.89,2.78a3.1,3.1,0,0,1,1.25,1.45c1.24,3,2.62,6,3.82,9a3.32,3.32,0,0,1,4,2,36.1,36.1,0,0,1,2,9.24,2.34,2.34,0,0,1-1.17,2.35A40.26,40.26,0,0,1,222,303.59a3,3,0,0,1-4.9-1.29,15.44,15.44,0,0,1-.35-1.53c-2,1.2-4.17,2.24-6.5,3.55-1.26.7-10.77,5.07-11,6.15-1.34,6.13,20.15,13.73,30.94,18a72.69,72.69,0,0,0,8.85.61c17.49,0,40.75-6.26,53.2-16.65a18.91,18.91,0,0,0-3.78-2.53Z" transform="translate(-16.5 -19.5)"/><path class="cls-4" d="M247.5,332A74.5,74.5,0,1,1,322,257.5,74.49,74.49,0,0,1,247.5,332Zm0-143.58a69.08,69.08,0,1,0,69.08,69.08A69.08,69.08,0,0,0,247.5,188.42Z" transform="translate(-16.5 -19.5)"/><path class="cls-4" d="M247.5,332a74.56,74.56,0,0,1-48-17.52,2.74,2.74,0,0,1-1-2.05,2.68,2.68,0,0,1,.93-2.06,22,22,0,0,1,3.92-2.79l21.43-11.68a6,6,0,0,0,3.14-5.3v-7.84a51.13,51.13,0,0,1-8.38-17.31,9.88,9.88,0,0,1-3.63-7.64V248.2a9.88,9.88,0,0,1,2.41-6.41V229.14a21.84,21.84,0,0,1,5.1-15.89c5-5.69,13.07-8.58,24-8.58s19,2.89,24,8.59a21.8,21.8,0,0,1,5.1,15.88v12.65a9.82,9.82,0,0,1,2.4,6.41v9.61a9.83,9.83,0,0,1-5.64,8.91,55.31,55.31,0,0,1-7.09,13.88c-.58.81-1.14,1.55-1.67,2.21v8a6,6,0,0,0,3.34,5.4l22.93,11.47a21.61,21.61,0,0,1,4.31,2.88,2.7,2.7,0,0,1,0,4.15A74.54,74.54,0,0,1,247.5,332Zm-41.78-19.5a69,69,0,0,0,83.21.27l-.46-.23-22.94-11.47a11.39,11.39,0,0,1-6.33-10.25v-9a2.69,2.69,0,0,1,.67-1.78c.71-.83,1.37-1.69,2-2.58a50.3,50.3,0,0,0,6.76-13.63,2.7,2.7,0,0,1,1.78-1.76,4.52,4.52,0,0,0,3.2-4.26V248.2a4.46,4.46,0,0,0-1.51-3.31,2.7,2.7,0,0,1-.9-2V229a2.16,2.16,0,0,1,0-.35,16.64,16.64,0,0,0-3.83-11.87c-3.93-4.43-10.62-6.68-19.9-6.68s-16,2.27-19.95,6.74a16.35,16.35,0,0,0-3.78,11.81,2.16,2.16,0,0,1,0,.35v13.89a2.7,2.7,0,0,1-.9,2,4.46,4.46,0,0,0-1.51,3.31v9.61a4.5,4.5,0,0,0,2.08,3.77,2.64,2.64,0,0,1,1.17,1.67,45.42,45.42,0,0,0,8.13,16.84,2.67,2.67,0,0,1,.63,1.73v8.78a11.47,11.47,0,0,1-6,10.06h0L206,312.34Z" transform="translate(-16.5 -19.5)"/><path class="cls-1" d="M410.5,329.29c.7,0,1.39,0,2.09-.05-36.49-1.11-65.75-32.79-65.75-71.74s29.26-70.63,65.75-71.74c-.7,0-1.39,0-2.09,0a71.79,71.79,0,0,0,0,143.58Z" transform="translate(-16.5 -19.5)"/><path class="cls-2" d="M389.13,298.28,367.71,310a19.36,19.36,0,0,0-3.44,2.45,71.76,71.76,0,0,0,92.19.24,19.24,19.24,0,0,0-3.78-2.54l-22.94-11.46a8.77,8.77,0,0,1-4.83-7.83v-9a34.68,34.68,0,0,0,2.17-2.79,52.86,52.86,0,0,0,7.13-14.37,7.18,7.18,0,0,0,5.1-6.85V248.2a7.13,7.13,0,0,0-2.4-5.32V229s2.86-21.61-26.41-21.61S384.09,229,384.09,229v13.89a7.13,7.13,0,0,0-2.4,5.32v9.61a7.16,7.16,0,0,0,3.32,6,47.57,47.57,0,0,0,8.68,18v8.78A8.76,8.76,0,0,1,389.13,298.28Z" transform="translate(-16.5 -19.5)"/><path class="cls-3" d="M451.42,309.93l-30.17-11.47a8.74,8.74,0,0,1-4.84-7.82v-9c.77-.9,1.49-1.83,2.17-2.79a53,53,0,0,0,7.13-14.37,7.22,7.22,0,0,0,5.11-6.86V248a7.15,7.15,0,0,0-2.4-5.32V228.81S431.27,207.2,402,207.2c-1.74,0-3.36.08-4.88.22a3.13,3.13,0,0,1-1.93,3.3,74.43,74.43,0,0,0-10.14,5.08,2.79,2.79,0,0,1,2.31,2.76c.58,10-2.85,21.68-5.94,31.88.1,4,.19,8,.3,12,.3.92.6,1.85.89,2.78a3.1,3.1,0,0,1,1.25,1.45c1.24,3,2.62,6,3.82,9a3.32,3.32,0,0,1,4,2,36.1,36.1,0,0,1,2,9.24,2.34,2.34,0,0,1-1.17,2.35A40.26,40.26,0,0,1,385,303.59a3,3,0,0,1-4.9-1.29,15.44,15.44,0,0,1-.35-1.53c-2,1.2-4.17,2.24-6.5,3.55-1.26.7-10.77,5.07-11,6.15-1.34,6.13,20.15,13.73,30.94,18a72.69,72.69,0,0,0,8.85.61c17.49,0,40.75-6.26,53.2-16.65a18.91,18.91,0,0,0-3.78-2.53Z" transform="translate(-16.5 -19.5)"/><path class="cls-4" d="M410.5,332A74.5,74.5,0,1,1,485,257.5,74.49,74.49,0,0,1,410.5,332Zm0-143.58a69.08,69.08,0,1,0,69.08,69.08A69.08,69.08,0,0,0,410.5,188.42Z" transform="translate(-16.5 -19.5)"/><path class="cls-4" d="M410.5,332a74.56,74.56,0,0,1-48-17.52,2.74,2.74,0,0,1-1-2.05,2.68,2.68,0,0,1,.93-2.06,22,22,0,0,1,3.92-2.79l21.43-11.68a6,6,0,0,0,3.14-5.3v-7.84a51.13,51.13,0,0,1-8.38-17.31,9.88,9.88,0,0,1-3.63-7.64V248.2a9.88,9.88,0,0,1,2.41-6.41V229.14a21.84,21.84,0,0,1,5.1-15.89c5-5.69,13.07-8.58,24-8.58s19,2.89,24,8.59a21.8,21.8,0,0,1,5.1,15.88v12.65a9.82,9.82,0,0,1,2.4,6.41v9.61a9.83,9.83,0,0,1-5.64,8.91,55.31,55.31,0,0,1-7.09,13.88c-.58.81-1.14,1.55-1.67,2.21v8a6,6,0,0,0,3.34,5.4l22.93,11.47a21.61,21.61,0,0,1,4.31,2.88,2.7,2.7,0,0,1,0,4.15A74.54,74.54,0,0,1,410.5,332Zm-41.78-19.5a69,69,0,0,0,83.21.27l-.46-.23-22.94-11.47a11.39,11.39,0,0,1-6.33-10.25v-9a2.69,2.69,0,0,1,.67-1.78c.71-.83,1.37-1.69,2-2.58a50.3,50.3,0,0,0,6.76-13.63,2.7,2.7,0,0,1,1.78-1.76,4.52,4.52,0,0,0,3.2-4.26V248.2a4.46,4.46,0,0,0-1.51-3.31,2.7,2.7,0,0,1-.9-2V229a2.16,2.16,0,0,1,0-.35,16.64,16.64,0,0,0-3.83-11.87c-3.93-4.43-10.62-6.68-19.9-6.68s-16,2.27-19.95,6.74a16.35,16.35,0,0,0-3.78,11.81,2.16,2.16,0,0,1,0,.35v13.89a2.7,2.7,0,0,1-.9,2,4.46,4.46,0,0,0-1.51,3.31v9.61a4.5,4.5,0,0,0,2.08,3.77,2.64,2.64,0,0,1,1.17,1.67,45.42,45.42,0,0,0,8.13,16.84,2.67,2.67,0,0,1,.63,1.73v8.78a11.47,11.47,0,0,1-6,10.06h0L369,312.34Z" transform="translate(-16.5 -19.5)"/><path class="cls-1" d="M567.5,329.29c.7,0,1.39,0,2.09-.05-36.49-1.11-65.75-32.79-65.75-71.74s29.26-70.63,65.75-71.74c-.7,0-1.39,0-2.09,0a71.79,71.79,0,0,0,0,143.58Z" transform="translate(-16.5 -19.5)"/><path class="cls-2" d="M546.13,298.28,524.71,310a19.36,19.36,0,0,0-3.44,2.45,71.76,71.76,0,0,0,92.19.24,19.24,19.24,0,0,0-3.78-2.54l-22.94-11.46a8.77,8.77,0,0,1-4.83-7.83v-9a34.68,34.68,0,0,0,2.17-2.79,52.86,52.86,0,0,0,7.13-14.37,7.18,7.18,0,0,0,5.1-6.85V248.2a7.13,7.13,0,0,0-2.4-5.32V229s2.86-21.61-26.41-21.61S541.09,229,541.09,229v13.89a7.13,7.13,0,0,0-2.4,5.32v9.61a7.16,7.16,0,0,0,3.32,6,47.57,47.57,0,0,0,8.68,18v8.78A8.76,8.76,0,0,1,546.13,298.28Z" transform="translate(-16.5 -19.5)"/><path class="cls-3" d="M608.42,309.93l-30.17-11.47a8.74,8.74,0,0,1-4.84-7.82v-9c.77-.9,1.49-1.83,2.17-2.79a53,53,0,0,0,7.13-14.37,7.22,7.22,0,0,0,5.11-6.86V248a7.15,7.15,0,0,0-2.4-5.32V228.81S588.27,207.2,559,207.2c-1.74,0-3.36.08-4.88.22a3.13,3.13,0,0,1-1.93,3.3,74.43,74.43,0,0,0-10.14,5.08,2.79,2.79,0,0,1,2.31,2.76c.58,10-2.85,21.68-5.94,31.88.1,4,.19,8,.3,12,.3.92.6,1.85.89,2.78a3.1,3.1,0,0,1,1.25,1.45c1.24,3,2.62,6,3.82,9a3.32,3.32,0,0,1,4,2,36.1,36.1,0,0,1,2,9.24,2.34,2.34,0,0,1-1.17,2.35A40.26,40.26,0,0,1,542,303.59a3,3,0,0,1-4.9-1.29,15.44,15.44,0,0,1-.35-1.53c-2,1.2-4.17,2.24-6.5,3.55-1.26.7-10.77,5.07-11,6.15-1.34,6.13,20.15,13.73,30.94,18a72.69,72.69,0,0,0,8.85.61c17.49,0,40.75-6.26,53.2-16.65a18.91,18.91,0,0,0-3.78-2.53Z" transform="translate(-16.5 -19.5)"/><path class="cls-4" d="M567.5,332A74.5,74.5,0,1,1,642,257.5,74.49,74.49,0,0,1,567.5,332Zm0-143.58a69.08,69.08,0,1,0,69.08,69.08A69.08,69.08,0,0,0,567.5,188.42Z" transform="translate(-16.5 -19.5)"/><path class="cls-4" d="M567.5,332a74.56,74.56,0,0,1-48-17.52,2.74,2.74,0,0,1-1-2.05,2.68,2.68,0,0,1,.93-2.06,22,22,0,0,1,3.92-2.79l21.43-11.68a6,6,0,0,0,3.14-5.3v-7.84a51.13,51.13,0,0,1-8.38-17.31,9.88,9.88,0,0,1-3.63-7.64V248.2a9.88,9.88,0,0,1,2.41-6.41V229.14a21.84,21.84,0,0,1,5.1-15.89c5-5.69,13.07-8.58,24-8.58s19,2.89,24,8.59a21.8,21.8,0,0,1,5.1,15.88v12.65a9.82,9.82,0,0,1,2.4,6.41v9.61a9.83,9.83,0,0,1-5.64,8.91,55.31,55.31,0,0,1-7.09,13.88c-.58.81-1.14,1.55-1.67,2.21v8a6,6,0,0,0,3.34,5.4l22.93,11.47a21.61,21.61,0,0,1,4.31,2.88,2.7,2.7,0,0,1,0,4.15A74.54,74.54,0,0,1,567.5,332Zm-41.78-19.5a69,69,0,0,0,83.21.27l-.46-.23-22.94-11.47a11.39,11.39,0,0,1-6.33-10.25v-9a2.69,2.69,0,0,1,.67-1.78c.71-.83,1.37-1.69,2-2.58a50.3,50.3,0,0,0,6.76-13.63,2.7,2.7,0,0,1,1.78-1.76,4.52,4.52,0,0,0,3.2-4.26V248.2a4.46,4.46,0,0,0-1.51-3.31,2.7,2.7,0,0,1-.9-2V229a2.16,2.16,0,0,1,0-.35,16.64,16.64,0,0,0-3.83-11.87c-3.93-4.43-10.62-6.68-19.9-6.68s-16,2.27-20,6.74a16.35,16.35,0,0,0-3.78,11.81,2.16,2.16,0,0,1,0,.35v13.89a2.7,2.7,0,0,1-.9,2,4.46,4.46,0,0,0-1.51,3.31v9.61a4.5,4.5,0,0,0,2.08,3.77,2.64,2.64,0,0,1,1.17,1.67,45.42,45.42,0,0,0,8.13,16.84,2.67,2.67,0,0,1,.63,1.73v8.78a11.47,11.47,0,0,1-6,10.06h0L526,312.34Z" transform="translate(-16.5 -19.5)"/><path class="cls-1" d="M321.5,166.29c.7,0,1.39,0,2.09,0-36.49-1.11-65.75-32.79-65.75-71.74s29.26-70.63,65.75-71.74c-.7,0-1.39-.05-2.09-.05a71.79,71.79,0,0,0,0,143.58Z" transform="translate(-16.5 -19.5)"/><path class="cls-2" d="M300.13,135.28,278.71,147a19.36,19.36,0,0,0-3.44,2.45,71.76,71.76,0,0,0,92.19.24,19.24,19.24,0,0,0-3.78-2.54l-22.94-11.46a8.77,8.77,0,0,1-4.83-7.83v-9a34.68,34.68,0,0,0,2.17-2.79,52.86,52.86,0,0,0,7.13-14.37,7.18,7.18,0,0,0,5.1-6.85V85.2a7.13,7.13,0,0,0-2.4-5.32V66s2.86-21.61-26.41-21.61S295.09,66,295.09,66V79.88a7.13,7.13,0,0,0-2.4,5.32v9.61a7.16,7.16,0,0,0,3.32,6,47.57,47.57,0,0,0,8.68,18v8.78A8.76,8.76,0,0,1,300.13,135.28Z" transform="translate(-16.5 -19.5)"/><path class="cls-3" d="M362.42,146.93l-30.17-11.47a8.74,8.74,0,0,1-4.84-7.82v-9c.77-.9,1.49-1.83,2.17-2.79a53,53,0,0,0,7.13-14.37,7.22,7.22,0,0,0,5.11-6.86V85a7.15,7.15,0,0,0-2.4-5.32V65.81S342.27,44.2,313,44.2c-1.74,0-3.36.08-4.88.22a3.13,3.13,0,0,1-1.93,3.3,74.43,74.43,0,0,0-10.14,5.08,2.79,2.79,0,0,1,2.31,2.76c.58,10-2.85,21.68-5.94,31.88.1,4,.19,8,.3,12,.3.92.6,1.85.89,2.78a3.1,3.1,0,0,1,1.25,1.45c1.24,3,2.62,6,3.82,9a3.32,3.32,0,0,1,4,2,36.1,36.1,0,0,1,2,9.24,2.34,2.34,0,0,1-1.17,2.35A40.26,40.26,0,0,1,296,140.59a3,3,0,0,1-4.9-1.29,15.44,15.44,0,0,1-.35-1.53c-2,1.2-4.17,2.24-6.5,3.55-1.26.7-10.77,5.07-11,6.15-1.34,6.13,20.15,13.73,30.94,18a72.69,72.69,0,0,0,8.85.61c17.49,0,40.75-6.26,53.2-16.65a18.91,18.91,0,0,0-3.78-2.53Z" transform="translate(-16.5 -19.5)"/><path class="cls-4" d="M321.5,169A74.5,74.5,0,1,1,396,94.5,74.49,74.49,0,0,1,321.5,169Zm0-143.58A69.08,69.08,0,1,0,390.58,94.5,69.08,69.08,0,0,0,321.5,25.42Z" transform="translate(-16.5 -19.5)"/><path class="cls-4" d="M321.5,169a74.56,74.56,0,0,1-48-17.52,2.74,2.74,0,0,1-1-2,2.68,2.68,0,0,1,.93-2.06,22,22,0,0,1,3.92-2.79l21.43-11.68a6,6,0,0,0,3.14-5.3v-7.84a51.13,51.13,0,0,1-8.38-17.31A9.88,9.88,0,0,1,290,94.81V85.2a9.88,9.88,0,0,1,2.41-6.41V66.14a21.84,21.84,0,0,1,5.1-15.89c5-5.69,13.07-8.58,24-8.58s19,2.89,24,8.59a21.8,21.8,0,0,1,5.1,15.88V78.79A9.82,9.82,0,0,1,353,85.2v9.61a9.83,9.83,0,0,1-5.64,8.91,55.31,55.31,0,0,1-7.09,13.88c-.58.81-1.14,1.55-1.67,2.21v8a6,6,0,0,0,3.34,5.4l22.93,11.47a21.61,21.61,0,0,1,4.31,2.88,2.7,2.7,0,0,1,0,4.15A74.54,74.54,0,0,1,321.5,169Zm-41.78-19.5a69,69,0,0,0,83.21.27l-.46-.23-22.94-11.47a11.39,11.39,0,0,1-6.33-10.25v-9a2.69,2.69,0,0,1,.67-1.78c.71-.83,1.37-1.69,2-2.58a50.3,50.3,0,0,0,6.76-13.63,2.7,2.7,0,0,1,1.78-1.76,4.52,4.52,0,0,0,3.2-4.26V85.2a4.46,4.46,0,0,0-1.51-3.31,2.7,2.7,0,0,1-.9-2V66a2.16,2.16,0,0,1,0-.35,16.64,16.64,0,0,0-3.83-11.87c-3.93-4.43-10.62-6.68-19.9-6.68s-16,2.27-19.95,6.74a16.35,16.35,0,0,0-3.78,11.81,2.16,2.16,0,0,1,0,.35V79.88a2.7,2.7,0,0,1-.9,2,4.46,4.46,0,0,0-1.51,3.31v9.61a4.5,4.5,0,0,0,2.08,3.77,2.64,2.64,0,0,1,1.17,1.67,45.42,45.42,0,0,0,8.13,16.84,2.67,2.67,0,0,1,.63,1.73v8.78a11.47,11.47,0,0,1-6,10.06h0L280,149.34Z" transform="translate(-16.5 -19.5)"/></svg>